<?xml version="1.0" encoding="iso-8859-1"?>
<!-- Generator: Adobe Illustrator 17.1.0, SVG Export Plug-In . SVG Version: 6.00 Build 0)  -->
<!DOCTYPE svg PUBLIC "-//W3C//DTD SVG 1.1//EN" "http://www.w3.org/Graphics/SVG/1.1/DTD/svg11.dtd">
<svg version="1.1" id="Capa_1" xmlns="http://www.w3.org/2000/svg" xmlns:xlink="http://www.w3.org/1999/xlink" x="0px" y="0px"
	 viewBox="0 0 465 465" style="enable-background:new 0 0 465 465;" xml:space="preserve">
<g>
	<path d="M318.797,0c-80.614,0-146.198,65.584-146.198,146.198s65.584,146.198,146.198,146.198s146.198-65.584,146.198-146.198
		S399.411,0,318.797,0z M318.797,277.396c-72.343,0-131.198-58.855-131.198-131.198S246.454,15,318.797,15
		s131.198,58.855,131.198,131.198S391.14,277.396,318.797,277.396z"/>
	<path d="M257.845,85.248c-2.929,2.929-2.928,7.678,0,10.606c1.465,1.464,3.384,2.196,5.303,2.196s3.839-0.732,5.304-2.197
		C281.9,82.406,299.779,75,318.798,75c19.018,0,36.897,7.405,50.344,20.853c2.928,2.93,7.677,2.929,10.606,0.001
		c2.929-2.929,2.929-7.678,0-10.606C363.468,68.966,341.822,60,318.798,60C295.772,60,274.126,68.967,257.845,85.248z"/>
	<path d="M201.352,253.036l-28.834,28.834c-6.254-4.194-13.607-6.448-21.306-6.448c-10.247,0-19.88,3.99-27.125,11.235
		L8.441,402.304c-9.498,9.498-9.278,19.203-7.421,25.672c1.94,6.761,6.538,13.604,14.467,21.533
		c6.65,6.649,16.848,15.489,28.585,15.491c0.001,0,0.002,0,0.003,0c6.748,0,13.011-2.842,18.615-8.445l101.544-101.544
		c0.003-0.003,0.006-0.006,0.01-0.009s0.006-0.006,0.009-0.01l14.083-14.083c7.246-7.246,11.236-16.879,11.236-27.125
		c0-7.7-2.253-15.052-6.448-21.307l28.834-28.834c2.929-2.93,2.929-7.678,0-10.607C209.029,250.108,204.28,250.108,201.352,253.036z
		 M52.085,445.947c-2.727,2.728-5.347,4.053-8.009,4.053c0,0-0.001,0-0.001,0c-4.567-0.001-10.617-3.734-17.981-11.099
		c-15.243-15.242-11.839-21.197-7.046-25.99l96.249-96.25l33.037,33.037L52.085,445.947z M167.73,330.302l-8.789,8.789
		l-33.037-33.036l8.789-8.789c4.413-4.412,10.279-6.843,16.519-6.843c6.24,0,12.106,2.43,16.519,6.843
		c4.412,4.412,6.842,10.278,6.842,16.518C174.572,320.023,172.142,325.89,167.73,330.302z"/>
	<path d="M427.798,153.771c-4.104-0.565-7.888,2.303-8.453,6.407c-6.868,49.896-50.094,87.521-100.547,87.521
		c-55.968,0-101.501-45.533-101.501-101.501S262.829,44.697,318.797,44.697c50.454,0,93.68,37.627,100.547,87.522
		c0.565,4.104,4.352,6.978,8.453,6.407c4.104-0.564,6.972-4.349,6.408-8.452c-3.803-27.627-17.491-53.028-38.543-71.524
		c-21.25-18.671-48.548-28.953-76.865-28.953c-64.239,0-116.501,52.262-116.501,116.501s52.262,116.501,116.501,116.501
		c28.317,0,55.614-10.282,76.864-28.952c21.052-18.497,34.74-43.897,38.543-71.524C434.769,158.119,431.901,154.335,427.798,153.771
		z"/>
</g>
<g>
</g>
<g>
</g>
<g>
</g>
<g>
</g>
<g>
</g>
<g>
</g>
<g>
</g>
<g>
</g>
<g>
</g>
<g>
</g>
<g>
</g>
<g>
</g>
<g>
</g>
<g>
</g>
<g>
</g>
</svg>
